# xmcd
#
# Track frame offsets:
#	150
#	15300
#	29927
#	43747
#	60410
#	75277
#	90717
#	106825
#	122045
#	137097
#
# Disc length: 2068 seconds
#
# Revision: 5
# Processed by: cddbd v1.5PL3 Copyright (c) Steve Scherf et al.
# Submitted via: CDex 1.50Beta5
#
DISCID=7708120a
DTITLE=Everything But The Girl - Baby, The Stars Shine Bright
DYEAR=1986
DGENRE=Dance
TTITLE0=Come On Home
TTITLE1=Don't Leave Me Behind
TTITLE2=A Country Mile
TTITLE3=Cross My Heart
TTITLE4=Don't Let The Teardrops Rust Your Shining Heart
TTITLE5=Careless
TTITLE6=Sugar Finney
TTITLE7=Come Hell Or High Water
TTITLE8=Fighting Talk
TTITLE9=Little Hitler
EXTD=
EXTT0=
EXTT1=
EXTT2=
EXTT3=
EXTT4=
EXTT5=
EXTT6=
EXTT7=
EXTT8=
EXTT9=
PLAYORDER=
